<svg id="Layer_1" data-name="Layer 1" xmlns="http://www.w3.org/2000/svg" xmlns:xlink="http://www.w3.org/1999/xlink" viewBox="0 0 53.28 42.34"><defs><style>.cls-1{fill:none;}.cls-2{clip-path:url(#clip-path);}.cls-3{fill:#277dc2;}</style><clipPath id="clip-path" transform="translate(-370.18 -284.62)"><rect class="cls-1" x="370.18" y="284.62" width="53.28" height="42.34"/></clipPath></defs><title>icon-mobility</title><g class="cls-2"><g id="Component_1_1" data-name="Component 1 1"><path id="Path_2024" data-name="Path 2024" class="cls-3" d="M385.11,315.92c1.6.22,33,3.43,33,3.43,2.16.3,4.91,0,4.85,3.53s-.9,4-3.77,4h-41a7.18,7.18,0,0,1-7.6-9.75c3.19-9.71,10-12.86,18.21-19a11.19,11.19,0,0,1,10.39-.77,31.7,31.7,0,0,1,4.57,3.43c4,3.9,8.68,7.15,14.41,8.19a15.56,15.56,0,0,1,3.77,1.17c.84.66,1.59,1.07,1.4,2.34-.31,2-2.8,2.55-5.19,2.31-5.2-.8-11.71-2.19-17.24-5.24-3.13-1.72-3.86-.66-6.13.43-3.72,1.79-7.38,3.48-10.17,4.7C384.69,314.72,383.51,315.7,385.11,315.92Z" transform="translate(-370.18 -284.62)"/><path id="Path_2025" data-name="Path 2025" class="cls-3" d="M407.74,284.66a6.77,6.77,0,0,1,6.52,7q0,.33-.06.66a7.09,7.09,0,0,1-14.13-1.13,6.9,6.9,0,0,1,7.19-6.57h0Z" transform="translate(-370.18 -284.62)"/></g></g></svg>